<mxfile>
    <diagram id="Ktsm4Cbd06nbPtXO9FPb" name="第 1 页">
        <mxGraphModel dx="991" dy="677" grid="1" gridSize="10" guides="1" tooltips="1" connect="1" arrows="1" fold="1" page="1" pageScale="1" pageWidth="827" pageHeight="1169" math="0" shadow="0">
            <root>
                <mxCell id="0"/>
                <mxCell id="1" parent="0"/>
                <mxCell id="4" style="edgeStyle=orthogonalEdgeStyle;rounded=0;orthogonalLoop=1;jettySize=auto;html=1;" parent="1" source="2" target="3" edge="1">
                    <mxGeometry relative="1" as="geometry"/>
                </mxCell>
                <mxCell id="2" value="PC→AR&lt;br&gt;PC+4" style="rounded=0;whiteSpace=wrap;html=1;" parent="1" vertex="1">
                    <mxGeometry x="383" y="30" width="120" height="60" as="geometry"/>
                </mxCell>
                <mxCell id="41" value="" style="edgeStyle=orthogonalEdgeStyle;rounded=0;orthogonalLoop=1;jettySize=auto;html=1;" parent="1" source="3" target="40" edge="1">
                    <mxGeometry relative="1" as="geometry"/>
                </mxCell>
                <mxCell id="42" value="ADD" style="edgeLabel;html=1;align=center;verticalAlign=middle;resizable=0;points=[];" parent="41" vertex="1" connectable="0">
                    <mxGeometry x="0.8564" relative="1" as="geometry">
                        <mxPoint as="offset"/>
                    </mxGeometry>
                </mxCell>
                <mxCell id="55" value="" style="edgeStyle=orthogonalEdgeStyle;rounded=0;orthogonalLoop=1;jettySize=auto;html=1;" parent="1" source="3" target="54" edge="1">
                    <mxGeometry relative="1" as="geometry"/>
                </mxCell>
                <mxCell id="56" value="LSR" style="edgeLabel;html=1;align=center;verticalAlign=middle;resizable=0;points=[];" parent="55" vertex="1" connectable="0">
                    <mxGeometry x="0.8041" y="1" relative="1" as="geometry">
                        <mxPoint as="offset"/>
                    </mxGeometry>
                </mxCell>
                <mxCell id="64" value="" style="edgeStyle=orthogonalEdgeStyle;rounded=0;orthogonalLoop=1;jettySize=auto;html=1;" parent="1" source="3" target="63" edge="1">
                    <mxGeometry relative="1" as="geometry">
                        <Array as="points">
                            <mxPoint x="370" y="160"/>
                        </Array>
                    </mxGeometry>
                </mxCell>
                <mxCell id="77" value="BL" style="edgeLabel;html=1;align=center;verticalAlign=middle;resizable=0;points=[];" parent="64" vertex="1" connectable="0">
                    <mxGeometry x="0.5389" relative="1" as="geometry">
                        <mxPoint as="offset"/>
                    </mxGeometry>
                </mxCell>
                <mxCell id="76" value="" style="edgeStyle=orthogonalEdgeStyle;rounded=0;orthogonalLoop=1;jettySize=auto;html=1;" parent="1" source="3" target="75" edge="1">
                    <mxGeometry relative="1" as="geometry">
                        <Array as="points">
                            <mxPoint x="520" y="160"/>
                        </Array>
                    </mxGeometry>
                </mxCell>
                <mxCell id="78" value="LDR" style="edgeLabel;html=1;align=center;verticalAlign=middle;resizable=0;points=[];" parent="76" vertex="1" connectable="0">
                    <mxGeometry x="0.5916" y="-2" relative="1" as="geometry">
                        <mxPoint as="offset"/>
                    </mxGeometry>
                </mxCell>
                <mxCell id="83" value="" style="edgeStyle=orthogonalEdgeStyle;rounded=0;orthogonalLoop=1;jettySize=auto;html=1;" parent="1" source="3" target="82" edge="1">
                    <mxGeometry relative="1" as="geometry"/>
                </mxCell>
                <mxCell id="84" value="SUBIS" style="edgeLabel;html=1;align=center;verticalAlign=middle;resizable=0;points=[];" parent="83" vertex="1" connectable="0">
                    <mxGeometry x="0.8365" relative="1" as="geometry">
                        <mxPoint as="offset"/>
                    </mxGeometry>
                </mxCell>
                <mxCell id="114" value="" style="edgeStyle=orthogonalEdgeStyle;rounded=0;orthogonalLoop=1;jettySize=auto;html=1;" parent="1" source="3" target="113" edge="1">
                    <mxGeometry relative="1" as="geometry"/>
                </mxCell>
                <mxCell id="115" value="CBZ" style="edgeLabel;html=1;align=center;verticalAlign=middle;resizable=0;points=[];" parent="114" vertex="1" connectable="0">
                    <mxGeometry x="0.9024" y="-1" relative="1" as="geometry">
                        <mxPoint as="offset"/>
                    </mxGeometry>
                </mxCell>
                <mxCell id="213" value="" style="edgeStyle=orthogonalEdgeStyle;rounded=0;orthogonalLoop=1;jettySize=auto;html=1;entryX=0.5;entryY=0;entryDx=0;entryDy=0;" parent="1" source="3" target="214" edge="1">
                    <mxGeometry relative="1" as="geometry">
                        <mxPoint x="1100" y="159.9999999999999" as="targetPoint"/>
                    </mxGeometry>
                </mxCell>
                <mxCell id="215" value="MOVZ" style="edgeLabel;html=1;align=center;verticalAlign=middle;resizable=0;points=[];" parent="213" vertex="1" connectable="0">
                    <mxGeometry x="0.9373" relative="1" as="geometry">
                        <mxPoint as="offset"/>
                    </mxGeometry>
                </mxCell>
                <mxCell id="3" value="Inst_addr→IR" style="rhombus;whiteSpace=wrap;html=1;" parent="1" vertex="1">
                    <mxGeometry x="380" y="120" width="126" height="80" as="geometry"/>
                </mxCell>
                <mxCell id="44" value="" style="edgeStyle=orthogonalEdgeStyle;rounded=0;orthogonalLoop=1;jettySize=auto;html=1;" parent="1" source="40" target="43" edge="1">
                    <mxGeometry relative="1" as="geometry"/>
                </mxCell>
                <mxCell id="40" value="Rn→B&lt;br&gt;Rm→A" style="whiteSpace=wrap;html=1;" parent="1" vertex="1">
                    <mxGeometry x="9" y="257" width="120" height="60" as="geometry"/>
                </mxCell>
                <mxCell id="50" style="edgeStyle=orthogonalEdgeStyle;rounded=0;orthogonalLoop=1;jettySize=auto;html=1;exitX=0.5;exitY=1;exitDx=0;exitDy=0;entryX=1;entryY=0.5;entryDx=0;entryDy=0;" parent="1" source="43" target="2" edge="1">
                    <mxGeometry relative="1" as="geometry">
                        <mxPoint x="520" y="50" as="targetPoint"/>
                        <Array as="points">
                            <mxPoint x="69" y="460"/>
                            <mxPoint x="70" y="460"/>
                            <mxPoint x="70" y="1160"/>
                            <mxPoint x="1640" y="1160"/>
                            <mxPoint x="1640" y="60"/>
                        </Array>
                        <mxPoint x="70" y="570" as="sourcePoint"/>
                    </mxGeometry>
                </mxCell>
                <mxCell id="43" value="A+B→Rd" style="whiteSpace=wrap;html=1;" parent="1" vertex="1">
                    <mxGeometry x="9" y="397" width="120" height="60" as="geometry"/>
                </mxCell>
                <mxCell id="58" value="" style="edgeStyle=orthogonalEdgeStyle;rounded=0;orthogonalLoop=1;jettySize=auto;html=1;" parent="1" source="54" target="57" edge="1">
                    <mxGeometry relative="1" as="geometry"/>
                </mxCell>
                <mxCell id="54" value="shamt→Shift_num&lt;br&gt;Rn→Shift_data" style="whiteSpace=wrap;html=1;" parent="1" vertex="1">
                    <mxGeometry x="160" y="257" width="120" height="60" as="geometry"/>
                </mxCell>
                <mxCell id="57" value="Shift_data&amp;gt;&amp;gt;&lt;br&gt;Shift_num→Rd" style="whiteSpace=wrap;html=1;" parent="1" vertex="1">
                    <mxGeometry x="160" y="397" width="120" height="60" as="geometry"/>
                </mxCell>
                <mxCell id="67" value="" style="edgeStyle=orthogonalEdgeStyle;rounded=0;orthogonalLoop=1;jettySize=auto;html=1;" parent="1" source="63" target="66" edge="1">
                    <mxGeometry relative="1" as="geometry"/>
                </mxCell>
                <mxCell id="63" value="PC→A&lt;br&gt;BR_addr→B" style="whiteSpace=wrap;html=1;" parent="1" vertex="1">
                    <mxGeometry x="310" y="257" width="120" height="60" as="geometry"/>
                </mxCell>
                <mxCell id="69" value="" style="edgeStyle=orthogonalEdgeStyle;rounded=0;orthogonalLoop=1;jettySize=auto;html=1;" parent="1" source="66" edge="1">
                    <mxGeometry relative="1" as="geometry">
                        <mxPoint x="370" y="1160" as="targetPoint"/>
                    </mxGeometry>
                </mxCell>
                <mxCell id="66" value="A+B→PC" style="whiteSpace=wrap;html=1;" parent="1" vertex="1">
                    <mxGeometry x="310" y="397" width="120" height="60" as="geometry"/>
                </mxCell>
                <mxCell id="80" value="" style="edgeStyle=orthogonalEdgeStyle;rounded=0;orthogonalLoop=1;jettySize=auto;html=1;" parent="1" source="75" target="79" edge="1">
                    <mxGeometry relative="1" as="geometry"/>
                </mxCell>
                <mxCell id="75" value="Rn→A&lt;br&gt;DT_Addr→B" style="whiteSpace=wrap;html=1;" parent="1" vertex="1">
                    <mxGeometry x="460" y="257" width="120" height="60" as="geometry"/>
                </mxCell>
                <mxCell id="81" style="edgeStyle=orthogonalEdgeStyle;rounded=0;orthogonalLoop=1;jettySize=auto;html=1;exitX=0.5;exitY=1;exitDx=0;exitDy=0;" parent="1" source="205" edge="1">
                    <mxGeometry relative="1" as="geometry">
                        <mxPoint x="520" y="1160" as="targetPoint"/>
                        <mxPoint x="520" y="740" as="sourcePoint"/>
                    </mxGeometry>
                </mxCell>
                <mxCell id="206" value="" style="edgeStyle=orthogonalEdgeStyle;rounded=0;orthogonalLoop=1;jettySize=auto;html=1;" parent="1" source="79" target="205" edge="1">
                    <mxGeometry relative="1" as="geometry"/>
                </mxCell>
                <mxCell id="79" value="A+B→M_Addr" style="whiteSpace=wrap;html=1;" parent="1" vertex="1">
                    <mxGeometry x="460" y="397" width="120" height="60" as="geometry"/>
                </mxCell>
                <mxCell id="89" value="" style="edgeStyle=orthogonalEdgeStyle;rounded=0;orthogonalLoop=1;jettySize=auto;html=1;" parent="1" source="82" target="88" edge="1">
                    <mxGeometry relative="1" as="geometry"/>
                </mxCell>
                <mxCell id="82" value="Rn→A&lt;br&gt;ALU_imm→B" style="whiteSpace=wrap;html=1;" parent="1" vertex="1">
                    <mxGeometry x="610" y="257" width="120" height="60" as="geometry"/>
                </mxCell>
                <mxCell id="87" style="edgeStyle=orthogonalEdgeStyle;rounded=0;orthogonalLoop=1;jettySize=auto;html=1;exitX=0.5;exitY=1;exitDx=0;exitDy=0;" parent="1" source="57" edge="1">
                    <mxGeometry relative="1" as="geometry">
                        <mxPoint x="220" y="1160" as="targetPoint"/>
                        <mxPoint x="220" y="597" as="sourcePoint"/>
                    </mxGeometry>
                </mxCell>
                <mxCell id="88" value="A-B→Rd" style="whiteSpace=wrap;html=1;" parent="1" vertex="1">
                    <mxGeometry x="610" y="397" width="120" height="60" as="geometry"/>
                </mxCell>
                <mxCell id="94" style="edgeStyle=orthogonalEdgeStyle;rounded=0;orthogonalLoop=1;jettySize=auto;html=1;exitX=0.5;exitY=1;exitDx=0;exitDy=0;" parent="1" source="88" edge="1">
                    <mxGeometry relative="1" as="geometry">
                        <mxPoint x="670" y="1160.6666259765625" as="targetPoint"/>
                        <mxPoint x="670" y="737" as="sourcePoint"/>
                    </mxGeometry>
                </mxCell>
                <mxCell id="108" value="" style="edgeStyle=orthogonalEdgeStyle;rounded=0;orthogonalLoop=1;jettySize=auto;html=1;" parent="1" source="97" target="107" edge="1">
                    <mxGeometry relative="1" as="geometry">
                        <Array as="points">
                            <mxPoint x="970" y="427"/>
                        </Array>
                    </mxGeometry>
                </mxCell>
                <mxCell id="109" value="1" style="edgeLabel;html=1;align=center;verticalAlign=middle;resizable=0;points=[];" parent="108" vertex="1" connectable="0">
                    <mxGeometry x="0.5753" relative="1" as="geometry">
                        <mxPoint x="1" y="-2" as="offset"/>
                    </mxGeometry>
                </mxCell>
                <mxCell id="97" value="A==0" style="rhombus;whiteSpace=wrap;html=1;" parent="1" vertex="1">
                    <mxGeometry x="843" y="387" width="100" height="80" as="geometry"/>
                </mxCell>
                <mxCell id="119" style="edgeStyle=orthogonalEdgeStyle;rounded=0;orthogonalLoop=1;jettySize=auto;html=1;exitX=0;exitY=0.5;exitDx=0;exitDy=0;" parent="1" source="97" edge="1">
                    <mxGeometry relative="1" as="geometry">
                        <mxPoint x="820" y="1161.3333740234375" as="targetPoint"/>
                        <mxPoint x="820" y="597" as="sourcePoint"/>
                    </mxGeometry>
                </mxCell>
                <mxCell id="208" value="0" style="edgeLabel;html=1;align=center;verticalAlign=middle;resizable=0;points=[];" parent="119" vertex="1" connectable="0">
                    <mxGeometry x="-0.7319" relative="1" as="geometry">
                        <mxPoint as="offset"/>
                    </mxGeometry>
                </mxCell>
                <mxCell id="121" value="" style="edgeStyle=orthogonalEdgeStyle;rounded=0;orthogonalLoop=1;jettySize=auto;html=1;" parent="1" source="107" target="120" edge="1">
                    <mxGeometry relative="1" as="geometry"/>
                </mxCell>
                <mxCell id="107" value="&lt;span&gt;PC&lt;/span&gt;→A&lt;br&gt;COND_BR_addr→B" style="whiteSpace=wrap;html=1;" parent="1" vertex="1">
                    <mxGeometry x="910" y="537" width="120" height="60" as="geometry"/>
                </mxCell>
                <mxCell id="127" style="edgeStyle=orthogonalEdgeStyle;rounded=0;orthogonalLoop=1;jettySize=auto;html=1;entryX=0.5;entryY=0;entryDx=0;entryDy=0;" parent="1" source="113" target="97" edge="1">
                    <mxGeometry relative="1" as="geometry"/>
                </mxCell>
                <mxCell id="113" value="Rt→A" style="whiteSpace=wrap;html=1;" parent="1" vertex="1">
                    <mxGeometry x="833" y="257" width="120" height="60" as="geometry"/>
                </mxCell>
                <mxCell id="120" value="A+B→PC" style="whiteSpace=wrap;html=1;" parent="1" vertex="1">
                    <mxGeometry x="910" y="677" width="120" height="60" as="geometry"/>
                </mxCell>
                <mxCell id="126" style="edgeStyle=orthogonalEdgeStyle;rounded=0;orthogonalLoop=1;jettySize=auto;html=1;exitX=0.5;exitY=1;exitDx=0;exitDy=0;" parent="1" source="120" edge="1">
                    <mxGeometry relative="1" as="geometry">
                        <mxPoint x="970" y="1160" as="targetPoint"/>
                        <mxPoint x="970" y="1017" as="sourcePoint"/>
                    </mxGeometry>
                </mxCell>
                <mxCell id="205" value="M_R_Data→Rt" style="whiteSpace=wrap;html=1;" parent="1" vertex="1">
                    <mxGeometry x="460" y="537" width="120" height="60" as="geometry"/>
                </mxCell>
                <mxCell id="217" value="" style="edgeStyle=orthogonalEdgeStyle;rounded=0;orthogonalLoop=1;jettySize=auto;html=1;" parent="1" source="214" target="216" edge="1">
                    <mxGeometry relative="1" as="geometry"/>
                </mxCell>
                <mxCell id="214" value="MOV_imm→Shift_data&lt;br&gt;I[22:21]*16→Shift_num" style="rounded=0;whiteSpace=wrap;html=1;" parent="1" vertex="1">
                    <mxGeometry x="1080" y="257" width="140" height="60" as="geometry"/>
                </mxCell>
                <mxCell id="218" style="edgeStyle=orthogonalEdgeStyle;rounded=0;orthogonalLoop=1;jettySize=auto;html=1;exitX=0.5;exitY=1;exitDx=0;exitDy=0;" parent="1" source="216" edge="1">
                    <mxGeometry relative="1" as="geometry">
                        <mxPoint x="1150" y="1160" as="targetPoint"/>
                    </mxGeometry>
                </mxCell>
                <mxCell id="216" value="Shift_data&amp;lt;&amp;lt;&lt;br&gt;Shift_num→Rd" style="whiteSpace=wrap;html=1;rounded=0;" parent="1" vertex="1">
                    <mxGeometry x="1090" y="397" width="120" height="60" as="geometry"/>
                </mxCell>
            </root>
        </mxGraphModel>
    </diagram>
</mxfile>